


[center]
[img]http://img718.imageshack.us/img718/8318/ak3i8.jpg[/img]
 
http://www.imdb.com/title/tt1496025/



When human forces discover the existence of the Vampire and Lycan clans, a war to eradicate both species commences. The vampire warrioress Selene leads the battle against humankind. 



General
Complete name : Underworld Awakening 2012 TS READNFO XviD - SiC.avi
Format : AVI
Format/Info : Audio Video Interleave
File size : 703 MiB
Duration : 1h 15mn
Overall bit rate : 1 305 Kbps
Writing library : VirtualDub build 30586/release

Video
ID : 0
Format : MPEG-4 Visual
Format profile : Advanced Simple@L5
Format settings, BVOP : 2
Format settings, QPel : No
Format settings, GMC : No warppoints
Format settings, Matrix : Default (H.263)
Muxing mode : Packed bitstream
Codec ID : XVID
Codec ID/Hint : XviD
Duration : 1h 15mn
Bit rate : 1 167 Kbps
Width : 680 pixels
Height : 288 pixels
Display aspect ratio : 2.35:1
Frame rate : 25.000 fps
Color space : YUV
Chroma subsampling : 4:2:0
Bit depth : 8 bits
Scan type : Progressive
Compression mode : Lossy
Bits/(Pixel*Frame) : 0.238
Stream size : 628 MiB (89%)
Writing library : XviD 64

Audio
ID : 1
Format : MPEG Audio
Format version : Version 1
Format profile : Layer 3
Mode : Joint stereo
Mode extension : MS Stereo
Codec ID : 55
Codec ID/Hint : MP3
Duration : 1h 15mn
Bit rate mode : Constant
Bit rate : 128 Kbps
Channel(s) : 2 channels
Sampling rate : 44.1 KHz
Compression mode : Lossy
Stream size : 68.9 MiB (10%)
Alignment : Split accross interleaves
Interleave, duration : 40 ms (1.00 video frame)
Writing library : LAME3.98r
Encoding settings : -m j -V 4 -q 2 -lowpass 17 -b 128
[img]http://img192.imageshack.us/img192/3603/ffjxv.png[/img]
[img]http://img190.imageshack.us/img190/8254/ixdxe.png[/img]
[img]http://img109.imageshack.us/img109/7606/vxoae.png[/img]
[img]http://img600.imageshack.us/img600/7149/irnq7.png[/img]
[img]http://img205.imageshack.us/img205/1167/grs8f.png[/img]
[/center]